<svg xmlns="http://www.w3.org/2000/svg" width="375" height="812" viewBox="0 0 375 812"><defs><linearGradient id="lg24" gradientUnits="userSpaceOnUse" x1="14" y1="88" x2="14" y2="164"><stop offset="0.0%" stop-color="rgba(255, 255, 255, 0.06)"/><stop offset="100.0%" stop-color="rgba(255, 255, 255, 0.02)"/></linearGradient><linearGradient id="lg25" gradientUnits="userSpaceOnUse" x1="271" y1="126" x2="271" y2="154"><stop offset="0.0%" stop-color="rgba(77, 208, 225, 0.42)"/><stop offset="100.0%" stop-color="rgba(0, 151, 167, 0.28)"/></linearGradient><linearGradient id="lg26" gradientUnits="userSpaceOnUse" x1="14" y1="172" x2="14" y2="248"><stop offset="0.0%" stop-color="rgba(255, 255, 255, 0.06)"/><stop offset="100.0%" stop-color="rgba(255, 255, 255, 0.02)"/></linearGradient><linearGradient id="lg27" gradientUnits="userSpaceOnUse" x1="271" y1="210" x2="271" y2="238"><stop offset="0.0%" stop-color="rgba(77, 208, 225, 0.42)"/><stop offset="100.0%" stop-color="rgba(0, 151, 167, 0.28)"/></linearGradient><linearGradient id="lg28" gradientUnits="userSpaceOnUse" x1="14" y1="256" x2="14" y2="332"><stop offset="0.0%" stop-color="rgba(255, 255, 255, 0.06)"/><stop offset="100.0%" stop-color="rgba(255, 255, 255, 0.02)"/></linearGradient><linearGradient id="lg29" gradientUnits="userSpaceOnUse" x1="271" y1="294" x2="271" y2="322"><stop offset="0.0%" stop-color="rgba(77, 208, 225, 0.42)"/><stop offset="100.0%" stop-color="rgba(0, 151, 167, 0.28)"/></linearGradient><linearGradient id="lg30" gradientUnits="userSpaceOnUse" x1="14" y1="340" x2="14" y2="416"><stop offset="0.0%" stop-color="rgba(255, 255, 255, 0.06)"/><stop offset="100.0%" stop-color="rgba(255, 255, 255, 0.02)"/></linearGradient><linearGradient id="lg31" gradientUnits="userSpaceOnUse" x1="271" y1="378" x2="271" y2="406"><stop offset="0.0%" stop-color="rgba(77, 208, 225, 0.42)"/><stop offset="100.0%" stop-color="rgba(0, 151, 167, 0.28)"/></linearGradient><linearGradient id="lg32" gradientUnits="userSpaceOnUse" x1="14" y1="424" x2="14" y2="500"><stop offset="0.0%" stop-color="rgba(255, 255, 255, 0.06)"/><stop offset="100.0%" stop-color="rgba(255, 255, 255, 0.02)"/></linearGradient><linearGradient id="lg33" gradientUnits="userSpaceOnUse" x1="271" y1="462" x2="271" y2="490"><stop offset="0.0%" stop-color="rgba(77, 208, 225, 0.42)"/><stop offset="100.0%" stop-color="rgba(0, 151, 167, 0.28)"/></linearGradient><linearGradient id="lg34" gradientUnits="userSpaceOnUse" x1="14" y1="508" x2="14" y2="584"><stop offset="0.0%" stop-color="rgba(255, 255, 255, 0.06)"/><stop offset="100.0%" stop-color="rgba(255, 255, 255, 0.02)"/></linearGradient><linearGradient id="lg35" gradientUnits="userSpaceOnUse" x1="271" y1="546" x2="271" y2="574"><stop offset="0.0%" stop-color="rgba(77, 208, 225, 0.42)"/><stop offset="100.0%" stop-color="rgba(0, 151, 167, 0.28)"/></linearGradient><linearGradient id="lg36" gradientUnits="userSpaceOnUse" x1="0" y1="754" x2="0" y2="812"><stop offset="0.0%" stop-color="rgba(255, 255, 255, 0.04)"/><stop offset="100.0%" stop-color="rgba(0, 0, 0, 0.10)"/></linearGradient><linearGradient id="lg37" gradientUnits="userSpaceOnUse" x1="0" y1="754" x2="0" y2="812"><stop offset="0.0%" stop-color="rgba(255, 215, 0, 0.14)"/><stop offset="100.0%" stop-color="rgba(255, 215, 0, 0.01)"/></linearGradient></defs><rect width="375" height="812" fill="#1a1a2e"/><rect x="0" y="0" width="375" height="812" fill="#1a1a2e"/><rect x="0" y="0" width="375" height="812" fill="#1a1a2e"/><path d="M25.00 48.00H59.00A11 11 0 0 1 70.00 59.00V59.00A11 11 0 0 1 59.00 70.00H25.00A11 11 0 0 1 14.00 59.00V59.00A11 11 0 0 1 25.00 48.00Z" fill="rgba(255, 255, 255, 0.10)" stroke="none"/><path d="M25.00 48.00H59.00A11 11 0 0 1 70.00 59.00V59.00A11 11 0 0 1 59.00 70.00H25.00A11 11 0 0 1 14.00 59.00V59.00A11 11 0 0 1 25.00 48.00Z" stroke-linecap="butt" stroke-linejoin="miter" stroke="rgba(255, 255, 255, 0.30)" stroke-width="1" fill="none"/><text x="42.00" y="59.00" font-size="12" font-family="Arial, Microsoft YaHei" font-weight="bold" text-anchor="middle" dominant-baseline="middle" fill="#ffffff">天赋</text><path d="M275.00 49.00H351.00A10 10 0 0 1 361.00 59.00V59.00A10 10 0 0 1 351.00 69.00H275.00A10 10 0 0 1 265.00 59.00V59.00A10 10 0 0 1 275.00 49.00Z" fill="rgba(77, 208, 225, 0.12)" stroke="none"/><path d="M275.00 49.00H351.00A10 10 0 0 1 361.00 59.00V59.00A10 10 0 0 1 351.00 69.00H275.00A10 10 0 0 1 265.00 59.00V59.00A10 10 0 0 1 275.00 49.00Z" stroke-linecap="butt" stroke-linejoin="miter" stroke="rgba(77, 208, 225, 0.35)" stroke-width="1" fill="none"/><text x="313.00" y="59.00" font-size="11" font-family="Arial, Microsoft YaHei" font-weight="bold" text-anchor="middle" dominant-baseline="middle" fill="#4DD0E1">✦ 9</text><path d="M26.00 88.00H349.00A12 12 0 0 1 361.00 100.00V152.00A12 12 0 0 1 349.00 164.00H26.00A12 12 0 0 1 14.00 152.00V100.00A12 12 0 0 1 26.00 88.00Z" fill="url(#lg24)" stroke="none"/><path d="M26.00 88.00H349.00A12 12 0 0 1 361.00 100.00V152.00A12 12 0 0 1 349.00 164.00H26.00A12 12 0 0 1 14.00 152.00V100.00A12 12 0 0 1 26.00 88.00Z" stroke-linecap="butt" stroke-linejoin="miter" stroke="rgba(255, 255, 255, 0.15)" stroke-width="1.2" fill="none"/><text x="28.00" y="106.00" font-size="14" font-family="Arial, Microsoft YaHei" font-weight="bold" text-anchor="start" dominant-baseline="middle" fill="#ffffff">启动资金</text><text x="347.00" y="106.00" font-size="11" font-family="Arial, Microsoft YaHei" font-weight="bold" text-anchor="end" dominant-baseline="middle" fill="#AAAAAA">Lv.0/3</text><path d="M32.50 122.00A3.5 3.5 0 0 1 25.50 122.00A3.5 3.5 0 0 1 32.50 122.00" fill="rgba(255, 255, 255, 0.10)" stroke="none"/><path d="M32.50 122.00A3.5 3.5 0 0 1 25.50 122.00A3.5 3.5 0 0 1 32.50 122.00" stroke-linecap="butt" stroke-linejoin="miter" stroke="rgba(255, 255, 255, 0.15)" stroke-width="1" fill="none"/><path d="M44.50 122.00A3.5 3.5 0 0 1 37.50 122.00A3.5 3.5 0 0 1 44.50 122.00" fill="rgba(255, 255, 255, 0.10)" stroke="none"/><path d="M44.50 122.00A3.5 3.5 0 0 1 37.50 122.00A3.5 3.5 0 0 1 44.50 122.00" stroke-linecap="butt" stroke-linejoin="miter" stroke="rgba(255, 255, 255, 0.15)" stroke-width="1" fill="none"/><path d="M56.50 122.00A3.5 3.5 0 0 1 49.50 122.00A3.5 3.5 0 0 1 56.50 122.00" fill="rgba(255, 255, 255, 0.10)" stroke="none"/><path d="M56.50 122.00A3.5 3.5 0 0 1 49.50 122.00A3.5 3.5 0 0 1 56.50 122.00" stroke-linecap="butt" stroke-linejoin="miter" stroke="rgba(255, 255, 255, 0.15)" stroke-width="1" fill="none"/><text x="28.00" y="140.00" font-size="11" font-family="Arial, Microsoft YaHei" text-anchor="start" dominant-baseline="middle" fill="#AAAAAA">开局金币 +60 / 级</text><path d="M281.00 126.00H339.00A10 10 0 0 1 349.00 136.00V144.00A10 10 0 0 1 339.00 154.00H281.00A10 10 0 0 1 271.00 144.00V136.00A10 10 0 0 1 281.00 126.00Z" fill="url(#lg25)" stroke="none"/><path d="M281.00 126.00H339.00A10 10 0 0 1 349.00 136.00V144.00A10 10 0 0 1 339.00 154.00H281.00A10 10 0 0 1 271.00 144.00V136.00A10 10 0 0 1 281.00 126.00Z" stroke-linecap="butt" stroke-linejoin="miter" stroke="rgba(77, 208, 225, 0.85)" stroke-width="1.5" fill="none"/><text x="310.00" y="140.00" font-size="12" font-family="Arial, Microsoft YaHei" font-weight="bold" text-anchor="middle" dominant-baseline="middle" fill="#ffffff">学习 ✦1</text><path d="M26.00 172.00H349.00A12 12 0 0 1 361.00 184.00V236.00A12 12 0 0 1 349.00 248.00H26.00A12 12 0 0 1 14.00 236.00V184.00A12 12 0 0 1 26.00 172.00Z" fill="url(#lg26)" stroke="none"/><path d="M26.00 172.00H349.00A12 12 0 0 1 361.00 184.00V236.00A12 12 0 0 1 349.00 248.00H26.00A12 12 0 0 1 14.00 236.00V184.00A12 12 0 0 1 26.00 172.00Z" stroke-linecap="butt" stroke-linejoin="miter" stroke="rgba(255, 255, 255, 0.15)" stroke-width="1.2" fill="none"/><text x="28.00" y="190.00" font-size="14" font-family="Arial, Microsoft YaHei" font-weight="bold" text-anchor="start" dominant-baseline="middle" fill="#ffffff">点石成金</text><text x="347.00" y="190.00" font-size="11" font-family="Arial, Microsoft YaHei" font-weight="bold" text-anchor="end" dominant-baseline="middle" fill="#AAAAAA">Lv.0/5</text><path d="M32.50 206.00A3.5 3.5 0 0 1 25.50 206.00A3.5 3.5 0 0 1 32.50 206.00" fill="rgba(255, 255, 255, 0.10)" stroke="none"/><path d="M32.50 206.00A3.5 3.5 0 0 1 25.50 206.00A3.5 3.5 0 0 1 32.50 206.00" stroke-linecap="butt" stroke-linejoin="miter" stroke="rgba(255, 255, 255, 0.15)" stroke-width="1" fill="none"/><path d="M44.50 206.00A3.5 3.5 0 0 1 37.50 206.00A3.5 3.5 0 0 1 44.50 206.00" fill="rgba(255, 255, 255, 0.10)" stroke="none"/><path d="M44.50 206.00A3.5 3.5 0 0 1 37.50 206.00A3.5 3.5 0 0 1 44.50 206.00" stroke-linecap="butt" stroke-linejoin="miter" stroke="rgba(255, 255, 255, 0.15)" stroke-width="1" fill="none"/><path d="M56.50 206.00A3.5 3.5 0 0 1 49.50 206.00A3.5 3.5 0 0 1 56.50 206.00" fill="rgba(255, 255, 255, 0.10)" stroke="none"/><path d="M56.50 206.00A3.5 3.5 0 0 1 49.50 206.00A3.5 3.5 0 0 1 56.50 206.00" stroke-linecap="butt" stroke-linejoin="miter" stroke="rgba(255, 255, 255, 0.15)" stroke-width="1" fill="none"/><path d="M68.50 206.00A3.5 3.5 0 0 1 61.50 206.00A3.5 3.5 0 0 1 68.50 206.00" fill="rgba(255, 255, 255, 0.10)" stroke="none"/><path d="M68.50 206.00A3.5 3.5 0 0 1 61.50 206.00A3.5 3.5 0 0 1 68.50 206.00" stroke-linecap="butt" stroke-linejoin="miter" stroke="rgba(255, 255, 255, 0.15)" stroke-width="1" fill="none"/><path d="M80.50 206.00A3.5 3.5 0 0 1 73.50 206.00A3.5 3.5 0 0 1 80.50 206.00" fill="rgba(255, 255, 255, 0.10)" stroke="none"/><path d="M80.50 206.00A3.5 3.5 0 0 1 73.50 206.00A3.5 3.5 0 0 1 80.50 206.00" stroke-linecap="butt" stroke-linejoin="miter" stroke="rgba(255, 255, 255, 0.15)" stroke-width="1" fill="none"/><text x="28.00" y="224.00" font-size="11" font-family="Arial, Microsoft YaHei" text-anchor="start" dominant-baseline="middle" fill="#AAAAAA">击杀金币收益 +8% / 级</text><path d="M281.00 210.00H339.00A10 10 0 0 1 349.00 220.00V228.00A10 10 0 0 1 339.00 238.00H281.00A10 10 0 0 1 271.00 228.00V220.00A10 10 0 0 1 281.00 210.00Z" fill="url(#lg27)" stroke="none"/><path d="M281.00 210.00H339.00A10 10 0 0 1 349.00 220.00V228.00A10 10 0 0 1 339.00 238.00H281.00A10 10 0 0 1 271.00 228.00V220.00A10 10 0 0 1 281.00 210.00Z" stroke-linecap="butt" stroke-linejoin="miter" stroke="rgba(77, 208, 225, 0.85)" stroke-width="1.5" fill="none"/><text x="310.00" y="224.00" font-size="12" font-family="Arial, Microsoft YaHei" font-weight="bold" text-anchor="middle" dominant-baseline="middle" fill="#ffffff">学习 ✦1</text><path d="M26.00 256.00H349.00A12 12 0 0 1 361.00 268.00V320.00A12 12 0 0 1 349.00 332.00H26.00A12 12 0 0 1 14.00 320.00V268.00A12 12 0 0 1 26.00 256.00Z" fill="url(#lg28)" stroke="none"/><path d="M26.00 256.00H349.00A12 12 0 0 1 361.00 268.00V320.00A12 12 0 0 1 349.00 332.00H26.00A12 12 0 0 1 14.00 320.00V268.00A12 12 0 0 1 26.00 256.00Z" stroke-linecap="butt" stroke-linejoin="miter" stroke="rgba(255, 255, 255, 0.15)" stroke-width="1.2" fill="none"/><text x="28.00" y="274.00" font-size="14" font-family="Arial, Microsoft YaHei" font-weight="bold" text-anchor="start" dominant-baseline="middle" fill="#ffffff">洞察先机</text><text x="347.00" y="274.00" font-size="11" font-family="Arial, Microsoft YaHei" font-weight="bold" text-anchor="end" dominant-baseline="middle" fill="#AAAAAA">Lv.0/3</text><path d="M32.50 290.00A3.5 3.5 0 0 1 25.50 290.00A3.5 3.5 0 0 1 32.50 290.00" fill="rgba(255, 255, 255, 0.10)" stroke="none"/><path d="M32.50 290.00A3.5 3.5 0 0 1 25.50 290.00A3.5 3.5 0 0 1 32.50 290.00" stroke-linecap="butt" stroke-linejoin="miter" stroke="rgba(255, 255, 255, 0.15)" stroke-width="1" fill="none"/><path d="M44.50 290.00A3.5 3.5 0 0 1 37.50 290.00A3.5 3.5 0 0 1 44.50 290.00" fill="rgba(255, 255, 255, 0.10)" stroke="none"/><path d="M44.50 290.00A3.5 3.5 0 0 1 37.50 290.00A3.5 3.5 0 0 1 44.50 290.00" stroke-linecap="butt" stroke-linejoin="miter" stroke="rgba(255, 255, 255, 0.15)" stroke-width="1" fill="none"/><path d="M56.50 290.00A3.5 3.5 0 0 1 49.50 290.00A3.5 3.5 0 0 1 56.50 290.00" fill="rgba(255, 255, 255, 0.10)" stroke="none"/><path d="M56.50 290.00A3.5 3.5 0 0 1 49.50 290.00A3.5 3.5 0 0 1 56.50 290.00" stroke-linecap="butt" stroke-linejoin="miter" stroke="rgba(255, 255, 255, 0.15)" stroke-width="1" fill="none"/><text x="28.00" y="308.00" font-size="11" font-family="Arial, Microsoft YaHei" text-anchor="start" dominant-baseline="middle" fill="#AAAAAA">特殊积分获取 +25% / 级</text><path d="M281.00 294.00H339.00A10 10 0 0 1 349.00 304.00V312.00A10 10 0 0 1 339.00 322.00H281.00A10 10 0 0 1 271.00 312.00V304.00A10 10 0 0 1 281.00 294.00Z" fill="url(#lg29)" stroke="none"/><path d="M281.00 294.00H339.00A10 10 0 0 1 349.00 304.00V312.00A10 10 0 0 1 339.00 322.00H281.00A10 10 0 0 1 271.00 312.00V304.00A10 10 0 0 1 281.00 294.00Z" stroke-linecap="butt" stroke-linejoin="miter" stroke="rgba(77, 208, 225, 0.85)" stroke-width="1.5" fill="none"/><text x="310.00" y="308.00" font-size="12" font-family="Arial, Microsoft YaHei" font-weight="bold" text-anchor="middle" dominant-baseline="middle" fill="#ffffff">学习 ✦1</text><path d="M26.00 340.00H349.00A12 12 0 0 1 361.00 352.00V404.00A12 12 0 0 1 349.00 416.00H26.00A12 12 0 0 1 14.00 404.00V352.00A12 12 0 0 1 26.00 340.00Z" fill="url(#lg30)" stroke="none"/><path d="M26.00 340.00H349.00A12 12 0 0 1 361.00 352.00V404.00A12 12 0 0 1 349.00 416.00H26.00A12 12 0 0 1 14.00 404.00V352.00A12 12 0 0 1 26.00 340.00Z" stroke-linecap="butt" stroke-linejoin="miter" stroke="rgba(255, 255, 255, 0.15)" stroke-width="1.2" fill="none"/><text x="28.00" y="358.00" font-size="14" font-family="Arial, Microsoft YaHei" font-weight="bold" text-anchor="start" dominant-baseline="middle" fill="#ffffff">坚固防线</text><text x="347.00" y="358.00" font-size="11" font-family="Arial, Microsoft YaHei" font-weight="bold" text-anchor="end" dominant-baseline="middle" fill="#AAAAAA">Lv.0/3</text><path d="M32.50 374.00A3.5 3.5 0 0 1 25.50 374.00A3.5 3.5 0 0 1 32.50 374.00" fill="rgba(255, 255, 255, 0.10)" stroke="none"/><path d="M32.50 374.00A3.5 3.5 0 0 1 25.50 374.00A3.5 3.5 0 0 1 32.50 374.00" stroke-linecap="butt" stroke-linejoin="miter" stroke="rgba(255, 255, 255, 0.15)" stroke-width="1" fill="none"/><path d="M44.50 374.00A3.5 3.5 0 0 1 37.50 374.00A3.5 3.5 0 0 1 44.50 374.00" fill="rgba(255, 255, 255, 0.10)" stroke="none"/><path d="M44.50 374.00A3.5 3.5 0 0 1 37.50 374.00A3.5 3.5 0 0 1 44.50 374.00" stroke-linecap="butt" stroke-linejoin="miter" stroke="rgba(255, 255, 255, 0.15)" stroke-width="1" fill="none"/><path d="M56.50 374.00A3.5 3.5 0 0 1 49.50 374.00A3.5 3.5 0 0 1 56.50 374.00" fill="rgba(255, 255, 255, 0.10)" stroke="none"/><path d="M56.50 374.00A3.5 3.5 0 0 1 49.50 374.00A3.5 3.5 0 0 1 56.50 374.00" stroke-linecap="butt" stroke-linejoin="miter" stroke="rgba(255, 255, 255, 0.15)" stroke-width="1" fill="none"/><text x="28.00" y="392.00" font-size="11" font-family="Arial, Microsoft YaHei" text-anchor="start" dominant-baseline="middle" fill="#AAAAAA">生存积分上限 +20 / 级</text><path d="M281.00 378.00H339.00A10 10 0 0 1 349.00 388.00V396.00A10 10 0 0 1 339.00 406.00H281.00A10 10 0 0 1 271.00 396.00V388.00A10 10 0 0 1 281.00 378.00Z" fill="url(#lg31)" stroke="none"/><path d="M281.00 378.00H339.00A10 10 0 0 1 349.00 388.00V396.00A10 10 0 0 1 339.00 406.00H281.00A10 10 0 0 1 271.00 396.00V388.00A10 10 0 0 1 281.00 378.00Z" stroke-linecap="butt" stroke-linejoin="miter" stroke="rgba(77, 208, 225, 0.85)" stroke-width="1.5" fill="none"/><text x="310.00" y="392.00" font-size="12" font-family="Arial, Microsoft YaHei" font-weight="bold" text-anchor="middle" dominant-baseline="middle" fill="#ffffff">学习 ✦1</text><path d="M26.00 424.00H349.00A12 12 0 0 1 361.00 436.00V488.00A12 12 0 0 1 349.00 500.00H26.00A12 12 0 0 1 14.00 488.00V436.00A12 12 0 0 1 26.00 424.00Z" fill="url(#lg32)" stroke="none"/><path d="M26.00 424.00H349.00A12 12 0 0 1 361.00 436.00V488.00A12 12 0 0 1 349.00 500.00H26.00A12 12 0 0 1 14.00 488.00V436.00A12 12 0 0 1 26.00 424.00Z" stroke-linecap="butt" stroke-linejoin="miter" stroke="rgba(255, 255, 255, 0.15)" stroke-width="1.2" fill="none"/><text x="28.00" y="442.00" font-size="14" font-family="Arial, Microsoft YaHei" font-weight="bold" text-anchor="start" dominant-baseline="middle" fill="#ffffff">精打细算</text><text x="347.00" y="442.00" font-size="11" font-family="Arial, Microsoft YaHei" font-weight="bold" text-anchor="end" dominant-baseline="middle" fill="#AAAAAA">Lv.0/4</text><path d="M32.50 458.00A3.5 3.5 0 0 1 25.50 458.00A3.5 3.5 0 0 1 32.50 458.00" fill="rgba(255, 255, 255, 0.10)" stroke="none"/><path d="M32.50 458.00A3.5 3.5 0 0 1 25.50 458.00A3.5 3.5 0 0 1 32.50 458.00" stroke-linecap="butt" stroke-linejoin="miter" stroke="rgba(255, 255, 255, 0.15)" stroke-width="1" fill="none"/><path d="M44.50 458.00A3.5 3.5 0 0 1 37.50 458.00A3.5 3.5 0 0 1 44.50 458.00" fill="rgba(255, 255, 255, 0.10)" stroke="none"/><path d="M44.50 458.00A3.5 3.5 0 0 1 37.50 458.00A3.5 3.5 0 0 1 44.50 458.00" stroke-linecap="butt" stroke-linejoin="miter" stroke="rgba(255, 255, 255, 0.15)" stroke-width="1" fill="none"/><path d="M56.50 458.00A3.5 3.5 0 0 1 49.50 458.00A3.5 3.5 0 0 1 56.50 458.00" fill="rgba(255, 255, 255, 0.10)" stroke="none"/><path d="M56.50 458.00A3.5 3.5 0 0 1 49.50 458.00A3.5 3.5 0 0 1 56.50 458.00" stroke-linecap="butt" stroke-linejoin="miter" stroke="rgba(255, 255, 255, 0.15)" stroke-width="1" fill="none"/><path d="M68.50 458.00A3.5 3.5 0 0 1 61.50 458.00A3.5 3.5 0 0 1 68.50 458.00" fill="rgba(255, 255, 255, 0.10)" stroke="none"/><path d="M68.50 458.00A3.5 3.5 0 0 1 61.50 458.00A3.5 3.5 0 0 1 68.50 458.00" stroke-linecap="butt" stroke-linejoin="miter" stroke="rgba(255, 255, 255, 0.15)" stroke-width="1" fill="none"/><text x="28.00" y="476.00" font-size="11" font-family="Arial, Microsoft YaHei" text-anchor="start" dominant-baseline="middle" fill="#AAAAAA">图形塔造价 -5% / 级</text><path d="M281.00 462.00H339.00A10 10 0 0 1 349.00 472.00V480.00A10 10 0 0 1 339.00 490.00H281.00A10 10 0 0 1 271.00 480.00V472.00A10 10 0 0 1 281.00 462.00Z" fill="url(#lg33)" stroke="none"/><path d="M281.00 462.00H339.00A10 10 0 0 1 349.00 472.00V480.00A10 10 0 0 1 339.00 490.00H281.00A10 10 0 0 1 271.00 480.00V472.00A10 10 0 0 1 281.00 462.00Z" stroke-linecap="butt" stroke-linejoin="miter" stroke="rgba(77, 208, 225, 0.85)" stroke-width="1.5" fill="none"/><text x="310.00" y="476.00" font-size="12" font-family="Arial, Microsoft YaHei" font-weight="bold" text-anchor="middle" dominant-baseline="middle" fill="#ffffff">学习 ✦1</text><path d="M26.00 508.00H349.00A12 12 0 0 1 361.00 520.00V572.00A12 12 0 0 1 349.00 584.00H26.00A12 12 0 0 1 14.00 572.00V520.00A12 12 0 0 1 26.00 508.00Z" fill="url(#lg34)" stroke="none"/><path d="M26.00 508.00H349.00A12 12 0 0 1 361.00 520.00V572.00A12 12 0 0 1 349.00 584.00H26.00A12 12 0 0 1 14.00 572.00V520.00A12 12 0 0 1 26.00 508.00Z" stroke-linecap="butt" stroke-linejoin="miter" stroke="rgba(255, 255, 255, 0.15)" stroke-width="1.2" fill="none"/><text x="28.00" y="526.00" font-size="14" font-family="Arial, Microsoft YaHei" font-weight="bold" text-anchor="start" dominant-baseline="middle" fill="#ffffff">图鉴学</text><text x="347.00" y="526.00" font-size="11" font-family="Arial, Microsoft YaHei" font-weight="bold" text-anchor="end" dominant-baseline="middle" fill="#AAAAAA">Lv.0/3</text><path d="M32.50 542.00A3.5 3.5 0 0 1 25.50 542.00A3.5 3.5 0 0 1 32.50 542.00" fill="rgba(255, 255, 255, 0.10)" stroke="none"/><path d="M32.50 542.00A3.5 3.5 0 0 1 25.50 542.00A3.5 3.5 0 0 1 32.50 542.00" stroke-linecap="butt" stroke-linejoin="miter" stroke="rgba(255, 255, 255, 0.15)" stroke-width="1" fill="none"/><path d="M44.50 542.00A3.5 3.5 0 0 1 37.50 542.00A3.5 3.5 0 0 1 44.50 542.00" fill="rgba(255, 255, 255, 0.10)" stroke="none"/><path d="M44.50 542.00A3.5 3.5 0 0 1 37.50 542.00A3.5 3.5 0 0 1 44.50 542.00" stroke-linecap="butt" stroke-linejoin="miter" stroke="rgba(255, 255, 255, 0.15)" stroke-width="1" fill="none"/><path d="M56.50 542.00A3.5 3.5 0 0 1 49.50 542.00A3.5 3.5 0 0 1 56.50 542.00" fill="rgba(255, 255, 255, 0.10)" stroke="none"/><path d="M56.50 542.00A3.5 3.5 0 0 1 49.50 542.00A3.5 3.5 0 0 1 56.50 542.00" stroke-linecap="butt" stroke-linejoin="miter" stroke="rgba(255, 255, 255, 0.15)" stroke-width="1" fill="none"/><text x="28.00" y="560.00" font-size="11" font-family="Arial, Microsoft YaHei" text-anchor="start" dominant-baseline="middle" fill="#AAAAAA">图签解锁/升级花费 -8% / 级</text><path d="M281.00 546.00H339.00A10 10 0 0 1 349.00 556.00V564.00A10 10 0 0 1 339.00 574.00H281.00A10 10 0 0 1 271.00 564.00V556.00A10 10 0 0 1 281.00 546.00Z" fill="url(#lg35)" stroke="none"/><path d="M281.00 546.00H339.00A10 10 0 0 1 349.00 556.00V564.00A10 10 0 0 1 339.00 574.00H281.00A10 10 0 0 1 271.00 564.00V556.00A10 10 0 0 1 281.00 546.00Z" stroke-linecap="butt" stroke-linejoin="miter" stroke="rgba(77, 208, 225, 0.85)" stroke-width="1.5" fill="none"/><text x="310.00" y="560.00" font-size="12" font-family="Arial, Microsoft YaHei" font-weight="bold" text-anchor="middle" dominant-baseline="middle" fill="#ffffff">学习 ✦2</text><text x="187.50" y="739.00" font-size="10" font-family="Arial, Microsoft YaHei" text-anchor="middle" dominant-baseline="middle" fill="#666666">天赋点来源：每过 5 波 +1 · 通关 +3 · 击杀 BOSS +1</text><rect x="0" y="754" width="375" height="58" fill="rgba(12, 12, 24, 0.94)"/><path d="M0.00 754.50L375.00 754.50" stroke-linecap="butt" stroke-linejoin="miter" stroke="rgba(255, 255, 255, 0.30)" stroke-width="1" fill="none"/><rect x="0" y="755" width="375" height="57" fill="url(#lg36)"/><path d="M31.50 762.00H43.50A5 5 0 0 1 48.50 767.00V779.00A5 5 0 0 1 43.50 784.00H31.50A5 5 0 0 1 26.50 779.00V767.00A5 5 0 0 1 31.50 762.00Z" stroke-dasharray="4 4" stroke-linecap="butt" stroke-linejoin="miter" stroke="rgba(255, 255, 255, 0.15)" stroke-width="1" fill="none"/><text x="37.50" y="773.00" font-size="13" font-family="Arial, Microsoft YaHei" font-weight="bold" text-anchor="middle" dominant-baseline="middle" fill="#666666">?</text><text x="37.50" y="796.00" font-size="10" font-family="Arial, Microsoft YaHei" font-weight="bold" text-anchor="middle" dominant-baseline="middle" fill="#666666">待扩展</text><text x="112.50" y="774.00" font-size="19" font-family="Arial, Microsoft YaHei" text-anchor="middle" dominant-baseline="middle" fill="#AAAAAA">📖</text><text x="112.50" y="796.00" font-size="10" font-family="Arial, Microsoft YaHei" font-weight="bold" text-anchor="middle" dominant-baseline="middle" fill="#888888">图签</text><path d="M0.00 -11.55L1.87 -7.92L1.87 3.30L-1.87 3.30L-1.87 -7.92Z" transform="matrix(0.7071067811865476 0.7071067811865475 -0.7071067811865475 0.7071067811865476 187.5 773)" fill="#AAAAAA" stroke="none"/><path d="M-4.62 3.52L4.62 3.52" stroke-linecap="round" stroke-linejoin="round" transform="matrix(0.7071067811865476 0.7071067811865475 -0.7071067811865475 0.7071067811865476 187.5 773)" stroke="#AAAAAA" stroke-width="1.87" fill="none"/><path d="M0.00 3.74L0.00 7.92" stroke-linecap="round" stroke-linejoin="round" transform="matrix(0.7071067811865476 0.7071067811865475 -0.7071067811865475 0.7071067811865476 187.5 773)" stroke="#AAAAAA" stroke-width="1.76" fill="none"/><path d="M1.43 8.80A1.4300000000000002 1.4300000000000002 0 0 1 -1.43 8.80A1.4300000000000002 1.4300000000000002 0 0 1 1.43 8.80" transform="matrix(0.7071067811865476 0.7071067811865475 -0.7071067811865475 0.7071067811865476 187.5 773)" fill="#AAAAAA" stroke="none"/><path d="M0.00 -11.55L1.87 -7.92L1.87 3.30L-1.87 3.30L-1.87 -7.92Z" transform="matrix(0.7071067811865476 -0.7071067811865475 0.7071067811865475 0.7071067811865476 187.5 773)" fill="#AAAAAA" stroke="none"/><path d="M-4.62 3.52L4.62 3.52" stroke-linecap="round" stroke-linejoin="round" transform="matrix(0.7071067811865476 -0.7071067811865475 0.7071067811865475 0.7071067811865476 187.5 773)" stroke="#AAAAAA" stroke-width="1.87" fill="none"/><path d="M0.00 3.74L0.00 7.92" stroke-linecap="round" stroke-linejoin="round" transform="matrix(0.7071067811865476 -0.7071067811865475 0.7071067811865475 0.7071067811865476 187.5 773)" stroke="#AAAAAA" stroke-width="1.76" fill="none"/><path d="M1.43 8.80A1.4300000000000002 1.4300000000000002 0 0 1 -1.43 8.80A1.4300000000000002 1.4300000000000002 0 0 1 1.43 8.80" transform="matrix(0.7071067811865476 -0.7071067811865475 0.7071067811865475 0.7071067811865476 187.5 773)" fill="#AAAAAA" stroke="none"/><text x="187.50" y="796.00" font-size="10" font-family="Arial, Microsoft YaHei" font-weight="bold" text-anchor="middle" dominant-baseline="middle" fill="#888888">战斗</text><rect x="227" y="757" width="71" height="55" fill="url(#lg37)"/><path d="M247.50 755.00H277.50A1.5 1.5 0 0 1 279.00 756.50V756.50A1.5 1.5 0 0 1 277.50 758.00H247.50A1.5 1.5 0 0 1 246.00 756.50V756.50A1.5 1.5 0 0 1 247.50 755.00Z" fill="#FFD700" stroke="none"/><path d="M262.50 763.00L264.62 770.88L272.50 773.00L264.62 775.12L262.50 783.00L260.38 775.12L252.50 773.00L260.38 770.88Z" fill="#FFD700" stroke="none"/><text x="262.50" y="796.00" font-size="10" font-family="Arial, Microsoft YaHei" font-weight="bold" text-anchor="middle" dominant-baseline="middle" fill="#FFD700">天赋</text><path d="M331.50 762.00H343.50A5 5 0 0 1 348.50 767.00V779.00A5 5 0 0 1 343.50 784.00H331.50A5 5 0 0 1 326.50 779.00V767.00A5 5 0 0 1 331.50 762.00Z" stroke-dasharray="4 4" stroke-linecap="butt" stroke-linejoin="miter" stroke="rgba(255, 255, 255, 0.15)" stroke-width="1" fill="none"/><text x="337.50" y="773.00" font-size="13" font-family="Arial, Microsoft YaHei" font-weight="bold" text-anchor="middle" dominant-baseline="middle" fill="#666666">?</text><text x="337.50" y="796.00" font-size="10" font-family="Arial, Microsoft YaHei" font-weight="bold" text-anchor="middle" dominant-baseline="middle" fill="#666666">待扩展</text></svg>